<svg width="172" height="35" viewBox="0 0 172 35" fill="none" xmlns="http://www.w3.org/2000/svg">
<path d="M0.6875 27V0.818181H11.9886C13.9318 0.818181 15.6321 1.2017 17.0895 1.96875C18.5469 2.73579 19.6804 3.81392 20.4901 5.20312C21.2997 6.59233 21.7045 8.21591 21.7045 10.0739C21.7045 11.9489 21.2869 13.5724 20.4517 14.9446C19.625 16.3168 18.4616 17.3736 16.9616 18.1151C15.4702 18.8565 13.7273 19.2273 11.733 19.2273H4.98295V13.7045H10.3011C11.1364 13.7045 11.848 13.5597 12.4361 13.2699C13.0327 12.9716 13.4886 12.5497 13.804 12.0043C14.1278 11.4588 14.2898 10.8153 14.2898 10.0739C14.2898 9.32386 14.1278 8.68466 13.804 8.15625C13.4886 7.61932 13.0327 7.21023 12.4361 6.92898C11.848 6.6392 11.1364 6.49432 10.3011 6.49432H7.79545V27H0.6875ZM31.4716 15.9545V27H24.4148V0.818181H31.2159V11.0966H31.4205C31.8636 9.84375 32.6009 8.8679 33.6321 8.16903C34.6634 7.46165 35.9034 7.10795 37.3523 7.10795C38.7415 7.10795 39.9474 7.4233 40.9702 8.05398C42.0014 8.68466 42.7983 9.55398 43.3608 10.6619C43.9318 11.7699 44.2131 13.0398 44.2045 14.4716V27H37.1477V15.9545C37.1563 14.983 36.9134 14.2202 36.419 13.6662C35.9332 13.1122 35.2386 12.8352 34.3352 12.8352C33.7642 12.8352 33.2614 12.9631 32.8267 13.2188C32.4006 13.4659 32.0682 13.8239 31.8295 14.2926C31.5994 14.7528 31.4801 15.3068 31.4716 15.9545ZM57.1484 27.358C55.0178 27.358 53.1939 26.9361 51.6768 26.0923C50.1598 25.2401 48.9964 24.0554 48.1868 22.5384C47.3771 21.0128 46.9723 19.2443 46.9723 17.233C46.9723 15.2216 47.3771 13.4574 48.1868 11.9403C48.9964 10.4148 50.1598 9.23011 51.6768 8.38636C53.1939 7.53409 55.0178 7.10795 57.1484 7.10795C59.2791 7.10795 61.103 7.53409 62.62 8.38636C64.1371 9.23011 65.3004 10.4148 66.1101 11.9403C66.9197 13.4574 67.3246 15.2216 67.3246 17.233C67.3246 19.2443 66.9197 21.0128 66.1101 22.5384C65.3004 24.0554 64.1371 25.2401 62.62 26.0923C61.103 26.9361 59.2791 27.358 57.1484 27.358ZM57.1996 22.142C57.7962 22.142 58.3118 21.9418 58.7464 21.5412C59.1811 21.1406 59.5178 20.5696 59.7564 19.8281C59.995 19.0866 60.1143 18.2045 60.1143 17.1818C60.1143 16.1506 59.995 15.2685 59.7564 14.5355C59.5178 13.794 59.1811 13.223 58.7464 12.8224C58.3118 12.4219 57.7962 12.2216 57.1996 12.2216C56.5689 12.2216 56.0277 12.4219 55.576 12.8224C55.1243 13.223 54.7791 13.794 54.5405 14.5355C54.3018 15.2685 54.1825 16.1506 54.1825 17.1818C54.1825 18.2045 54.3018 19.0866 54.5405 19.8281C54.7791 20.5696 55.1243 21.1406 55.576 21.5412C56.0277 21.9418 56.5689 22.142 57.1996 22.142ZM81.8984 7.36364V12.4773H68.9609V7.36364H81.8984ZM71.4666 2.65909H78.5234V20.6847C78.5234 20.9574 78.5703 21.1875 78.6641 21.375C78.7578 21.554 78.9027 21.6903 79.0987 21.7841C79.2947 21.8693 79.5462 21.9119 79.853 21.9119C80.0661 21.9119 80.3132 21.8864 80.5945 21.8352C80.8842 21.7841 81.0973 21.7415 81.2337 21.7074L82.2564 26.6676C81.9411 26.7614 81.4893 26.8764 80.9013 27.0128C80.3217 27.1491 79.6314 27.2386 78.8303 27.2812C77.2109 27.3665 75.8516 27.2003 74.7521 26.7827C73.6527 26.3565 72.826 25.6875 72.272 24.7756C71.718 23.8636 71.4496 22.7216 71.4666 21.3494V2.65909ZM94.0273 27.358C91.8967 27.358 90.0728 26.9361 88.5558 26.0923C87.0387 25.2401 85.8754 24.0554 85.0657 22.5384C84.256 21.0128 83.8512 19.2443 83.8512 17.233C83.8512 15.2216 84.256 13.4574 85.0657 11.9403C85.8754 10.4148 87.0387 9.23011 88.5558 8.38636C90.0728 7.53409 91.8967 7.10795 94.0273 7.10795C96.158 7.10795 97.9819 7.53409 99.4989 8.38636C101.016 9.23011 102.179 10.4148 102.989 11.9403C103.799 13.4574 104.203 15.2216 104.203 17.233C104.203 19.2443 103.799 21.0128 102.989 22.5384C102.179 24.0554 101.016 25.2401 99.4989 26.0923C97.9819 26.9361 96.158 27.358 94.0273 27.358ZM94.0785 22.142C94.6751 22.142 95.1907 21.9418 95.6254 21.5412C96.06 21.1406 96.3967 20.5696 96.6353 19.8281C96.8739 19.0866 96.9933 18.2045 96.9933 17.1818C96.9933 16.1506 96.8739 15.2685 96.6353 14.5355C96.3967 13.794 96.06 13.223 95.6254 12.8224C95.1907 12.4219 94.6751 12.2216 94.0785 12.2216C93.4478 12.2216 92.9066 12.4219 92.4549 12.8224C92.0032 13.223 91.658 13.794 91.4194 14.5355C91.1808 15.2685 91.0614 16.1506 91.0614 17.1818C91.0614 18.2045 91.1808 19.0866 91.4194 19.8281C91.658 20.5696 92.0032 21.1406 92.4549 21.5412C92.9066 21.9418 93.4478 22.142 94.0785 22.142Z" fill="white"/>
<path d="M106.965 27V0.818181H118.317C120.311 0.818181 121.986 1.08665 123.341 1.62358C124.705 2.16051 125.732 2.91903 126.422 3.89915C127.121 4.87926 127.471 6.03409 127.471 7.36364C127.471 8.3267 127.257 9.20454 126.831 9.99716C126.414 10.7898 125.826 11.4545 125.067 11.9915C124.309 12.5199 123.422 12.8864 122.408 13.0909V13.3466C123.533 13.3892 124.556 13.6747 125.476 14.2031C126.397 14.723 127.13 15.4432 127.675 16.3636C128.221 17.2756 128.493 18.3494 128.493 19.5852C128.493 21.017 128.118 22.2912 127.368 23.4077C126.627 24.5241 125.57 25.402 124.198 26.0412C122.826 26.6804 121.189 27 119.289 27H106.965ZM114.073 21.3239H117.397C118.59 21.3239 119.485 21.1023 120.081 20.6591C120.678 20.2074 120.976 19.5426 120.976 18.6648C120.976 18.0511 120.836 17.5312 120.554 17.1051C120.273 16.679 119.873 16.3551 119.353 16.1335C118.841 15.9119 118.223 15.8011 117.499 15.8011H114.073V21.3239ZM114.073 11.4034H116.988C117.61 11.4034 118.159 11.3054 118.637 11.1094C119.114 10.9134 119.485 10.6321 119.749 10.2656C120.022 9.89062 120.158 9.43466 120.158 8.89773C120.158 8.08807 119.868 7.47017 119.289 7.04403C118.709 6.60938 117.976 6.39205 117.09 6.39205H114.073V11.4034ZM136.586 27.3068C135.333 27.3068 134.225 27.1023 133.262 26.6932C132.307 26.2756 131.557 25.6449 131.012 24.8011C130.466 23.9574 130.194 22.8835 130.194 21.5795C130.194 20.5057 130.377 19.5895 130.743 18.831C131.11 18.0639 131.621 17.4375 132.277 16.9517C132.934 16.4659 133.696 16.0952 134.566 15.8395C135.444 15.5838 136.39 15.4176 137.404 15.3409C138.503 15.2557 139.385 15.1534 140.05 15.0341C140.723 14.9062 141.209 14.7315 141.507 14.5099C141.806 14.2798 141.955 13.9773 141.955 13.6023V13.5511C141.955 13.0398 141.759 12.6477 141.367 12.375C140.975 12.1023 140.472 11.9659 139.858 11.9659C139.185 11.9659 138.635 12.1151 138.209 12.4134C137.792 12.7031 137.54 13.1506 137.455 13.7557H130.961C131.046 12.5625 131.425 11.4631 132.098 10.4574C132.78 9.44318 133.773 8.63352 135.077 8.02841C136.381 7.41477 138.009 7.10795 139.961 7.10795C141.367 7.10795 142.628 7.27415 143.745 7.60653C144.861 7.9304 145.811 8.38636 146.596 8.97443C147.38 9.55398 147.976 10.2358 148.385 11.0199C148.803 11.7955 149.012 12.6392 149.012 13.5511V27H142.415V24.2386H142.262C141.87 24.9716 141.392 25.5639 140.83 26.0156C140.276 26.4673 139.641 26.7955 138.925 27C138.218 27.2045 137.438 27.3068 136.586 27.3068ZM138.887 22.858C139.424 22.858 139.926 22.7472 140.395 22.5256C140.873 22.304 141.26 21.9844 141.559 21.5668C141.857 21.1491 142.006 20.642 142.006 20.0455V18.4091C141.819 18.4858 141.618 18.5582 141.405 18.6264C141.201 18.6946 140.979 18.7585 140.74 18.8182C140.51 18.8778 140.263 18.9332 139.999 18.9844C139.743 19.0355 139.475 19.0824 139.194 19.125C138.648 19.2102 138.201 19.3509 137.851 19.5469C137.51 19.7344 137.255 19.9688 137.084 20.25C136.922 20.5227 136.841 20.8295 136.841 21.1705C136.841 21.7159 137.033 22.1335 137.417 22.4233C137.8 22.7131 138.29 22.858 138.887 22.858ZM155.976 34.3636C155.166 34.3636 154.395 34.2997 153.662 34.1719C152.929 34.0526 152.286 33.8864 151.732 33.6733L153.266 28.6619C153.845 28.8665 154.374 28.9986 154.851 29.0582C155.337 29.1179 155.75 29.0838 156.091 28.956C156.44 28.8281 156.692 28.5852 156.845 28.2273L156.999 27.8693L150.095 7.36364H157.459L160.629 20.9659H160.834L164.055 7.36364H171.47L164.311 28.6364C163.953 29.7188 163.433 30.6903 162.751 31.5511C162.078 32.4205 161.192 33.1065 160.092 33.6094C158.993 34.1122 157.621 34.3636 155.976 34.3636Z" fill="#2563EB"/>
</svg>
