<svg width="114" height="23" viewBox="0 0 114 23" fill="none" xmlns="http://www.w3.org/2000/svg">
<path d="M0.125 18V0.545454H7.65909C8.95455 0.545454 10.0881 0.801136 11.0597 1.3125C12.0313 1.82386 12.7869 2.54261 13.3267 3.46875C13.8665 4.39489 14.1364 5.47727 14.1364 6.71591C14.1364 7.96591 13.858 9.0483 13.3011 9.96307C12.75 10.8778 11.9744 11.5824 10.9744 12.0767C9.98011 12.571 8.81818 12.8182 7.48864 12.8182H2.98864V9.13636H6.53409C7.09091 9.13636 7.56534 9.03977 7.95739 8.84659C8.35511 8.64773 8.65909 8.36648 8.86932 8.00284C9.08523 7.6392 9.19318 7.21023 9.19318 6.71591C9.19318 6.21591 9.08523 5.78977 8.86932 5.4375C8.65909 5.07955 8.35511 4.80682 7.95739 4.61932C7.56534 4.42614 7.09091 4.32954 6.53409 4.32954H4.86364V18H0.125ZM20.6477 10.6364V18H15.9432V0.545454H20.4773V7.39773H20.6136C20.9091 6.5625 21.4006 5.91193 22.0881 5.44602C22.7756 4.97443 23.6023 4.73864 24.5682 4.73864C25.4943 4.73864 26.2983 4.94886 26.9801 5.36932C27.6676 5.78977 28.1989 6.36932 28.5739 7.10795C28.9545 7.84659 29.142 8.69318 29.1364 9.64773V18H24.4318V10.6364C24.4375 9.98864 24.2756 9.48011 23.946 9.1108C23.6222 8.74148 23.1591 8.55682 22.5568 8.55682C22.1761 8.55682 21.8409 8.64205 21.5511 8.8125C21.267 8.97727 21.0455 9.21591 20.8864 9.52841C20.733 9.83523 20.6534 10.2045 20.6477 10.6364ZM37.7656 18.2386C36.3452 18.2386 35.1293 17.9574 34.1179 17.3949C33.1065 16.8267 32.331 16.0369 31.7912 15.0256C31.2514 14.0085 30.9815 12.8295 30.9815 11.4886C30.9815 10.1477 31.2514 8.97159 31.7912 7.96023C32.331 6.94318 33.1065 6.15341 34.1179 5.59091C35.1293 5.02273 36.3452 4.73864 37.7656 4.73864C39.1861 4.73864 40.402 5.02273 41.4134 5.59091C42.4247 6.15341 43.2003 6.94318 43.7401 7.96023C44.2798 8.97159 44.5497 10.1477 44.5497 11.4886C44.5497 12.8295 44.2798 14.0085 43.7401 15.0256C43.2003 16.0369 42.4247 16.8267 41.4134 17.3949C40.402 17.9574 39.1861 18.2386 37.7656 18.2386ZM37.7997 14.7614C38.1974 14.7614 38.5412 14.6278 38.831 14.3608C39.1207 14.0937 39.3452 13.7131 39.5043 13.2188C39.6634 12.7244 39.7429 12.1364 39.7429 11.4545C39.7429 10.767 39.6634 10.179 39.5043 9.69034C39.3452 9.19602 39.1207 8.81534 38.831 8.5483C38.5412 8.28125 38.1974 8.14773 37.7997 8.14773C37.3793 8.14773 37.0185 8.28125 36.7173 8.5483C36.4162 8.81534 36.1861 9.19602 36.027 9.69034C35.8679 10.179 35.7884 10.767 35.7884 11.4545C35.7884 12.1364 35.8679 12.7244 36.027 13.2188C36.1861 13.7131 36.4162 14.0937 36.7173 14.3608C37.0185 14.6278 37.3793 14.7614 37.7997 14.7614ZM54.2656 4.90909V8.31818H45.6406V4.90909H54.2656ZM47.3111 1.77273H52.0156V13.7898C52.0156 13.9716 52.0469 14.125 52.1094 14.25C52.1719 14.3693 52.2685 14.4602 52.3991 14.5227C52.5298 14.5795 52.6974 14.608 52.902 14.608C53.044 14.608 53.2088 14.5909 53.3963 14.5568C53.5895 14.5227 53.7315 14.4943 53.8224 14.4716L54.5043 17.7784C54.294 17.8409 53.9929 17.9176 53.6009 18.0085C53.2145 18.0994 52.7543 18.1591 52.2202 18.1875C51.1406 18.2443 50.2344 18.1335 49.5014 17.8551C48.7685 17.571 48.2173 17.125 47.848 16.517C47.4787 15.9091 47.2997 15.1477 47.3111 14.233V1.77273ZM62.3516 18.2386C60.9311 18.2386 59.7152 17.9574 58.7038 17.3949C57.6925 16.8267 56.9169 16.0369 56.3771 15.0256C55.8374 14.0085 55.5675 12.8295 55.5675 11.4886C55.5675 10.1477 55.8374 8.97159 56.3771 7.96023C56.9169 6.94318 57.6925 6.15341 58.7038 5.59091C59.7152 5.02273 60.9311 4.73864 62.3516 4.73864C63.772 4.73864 64.9879 5.02273 65.9993 5.59091C67.0107 6.15341 67.7862 6.94318 68.326 7.96023C68.8658 8.97159 69.1357 10.1477 69.1357 11.4886C69.1357 12.8295 68.8658 14.0085 68.326 15.0256C67.7862 16.0369 67.0107 16.8267 65.9993 17.3949C64.9879 17.9574 63.772 18.2386 62.3516 18.2386ZM62.3857 14.7614C62.7834 14.7614 63.1271 14.6278 63.4169 14.3608C63.7067 14.0937 63.9311 13.7131 64.0902 13.2188C64.2493 12.7244 64.3288 12.1364 64.3288 11.4545C64.3288 10.767 64.2493 10.179 64.0902 9.69034C63.9311 9.19602 63.7067 8.81534 63.4169 8.5483C63.1271 8.28125 62.7834 8.14773 62.3857 8.14773C61.9652 8.14773 61.6044 8.28125 61.3033 8.5483C61.0021 8.81534 60.772 9.19602 60.6129 9.69034C60.4538 10.179 60.3743 10.767 60.3743 11.4545C60.3743 12.1364 60.4538 12.7244 60.6129 13.2188C60.772 13.7131 61.0021 14.0937 61.3033 14.3608C61.6044 14.6278 61.9652 14.7614 62.3857 14.7614Z" fill="#1E3A8A"/>
<path d="M70.9766 18V0.545454H78.5447C79.8743 0.545454 80.9908 0.724432 81.8942 1.08239C82.8033 1.44034 83.4879 1.94602 83.9482 2.59943C84.4141 3.25284 84.647 4.02273 84.647 4.90909C84.647 5.55114 84.505 6.13636 84.2209 6.66477C83.9425 7.19318 83.5504 7.63636 83.0447 7.99432C82.5391 8.34659 81.9482 8.59091 81.272 8.72727V8.89773C82.022 8.92614 82.7038 9.11648 83.3175 9.46875C83.9311 9.81534 84.4197 10.2955 84.7834 10.9091C85.147 11.517 85.3288 12.233 85.3288 13.0568C85.3288 14.0114 85.0788 14.8608 84.5788 15.6051C84.0845 16.3494 83.38 16.9347 82.4652 17.3608C81.5504 17.7869 80.4595 18 79.1925 18H70.9766ZM75.7152 14.2159H77.9311C78.7266 14.2159 79.3232 14.0682 79.7209 13.7727C80.1186 13.4716 80.3175 13.0284 80.3175 12.4432C80.3175 12.0341 80.2237 11.6875 80.0362 11.4034C79.8487 11.1193 79.5817 10.9034 79.2351 10.7557C78.8942 10.608 78.4822 10.5341 77.9993 10.5341H75.7152V14.2159ZM75.7152 7.60227H77.6584C78.0732 7.60227 78.4396 7.53693 78.7578 7.40625C79.076 7.27557 79.3232 7.08807 79.4993 6.84375C79.6811 6.59375 79.772 6.28977 79.772 5.93182C79.772 5.39204 79.5788 4.98011 79.1925 4.69602C78.8061 4.40625 78.3175 4.26136 77.7266 4.26136H75.7152V7.60227ZM90.7237 18.2045C89.8885 18.2045 89.1499 18.0682 88.5078 17.7955C87.8714 17.517 87.3714 17.0966 87.0078 16.5341C86.6442 15.9716 86.4624 15.2557 86.4624 14.3864C86.4624 13.6705 86.5845 13.0597 86.8288 12.554C87.0732 12.0426 87.4141 11.625 87.8516 11.3011C88.2891 10.9773 88.7976 10.7301 89.3771 10.5597C89.9624 10.3892 90.593 10.2784 91.2692 10.2273C92.0021 10.1705 92.5902 10.1023 93.0334 10.0227C93.4822 9.9375 93.8061 9.82102 94.005 9.6733C94.2038 9.51989 94.3033 9.31818 94.3033 9.06818V9.03409C94.3033 8.69318 94.1726 8.43182 93.9112 8.25C93.6499 8.06818 93.3146 7.97727 92.9055 7.97727C92.4567 7.97727 92.0902 8.0767 91.8061 8.27557C91.5277 8.46875 91.3601 8.76705 91.3033 9.17045H86.9737C87.0305 8.375 87.2834 7.64205 87.7322 6.97159C88.1868 6.29545 88.8487 5.75568 89.718 5.35227C90.5874 4.94318 91.6726 4.73864 92.9737 4.73864C93.9112 4.73864 94.7521 4.84943 95.4964 5.07102C96.2408 5.28693 96.8743 5.59091 97.397 5.98295C97.9197 6.36932 98.3175 6.82386 98.5902 7.34659C98.8686 7.86364 99.0078 8.42614 99.0078 9.03409V18H94.6101V16.1591H94.5078C94.2464 16.6477 93.9283 17.0426 93.5533 17.3438C93.1839 17.6449 92.7607 17.8636 92.2834 18C91.8118 18.1364 91.2919 18.2045 90.7237 18.2045ZM92.2578 15.2386C92.6158 15.2386 92.951 15.1648 93.2635 15.017C93.5817 14.8693 93.8402 14.6562 94.0391 14.3778C94.2379 14.0994 94.3374 13.7614 94.3374 13.3636V12.2727C94.2124 12.3239 94.0788 12.3722 93.9368 12.4176C93.8004 12.4631 93.6527 12.5057 93.4936 12.5455C93.3402 12.5852 93.1754 12.6222 92.9993 12.6562C92.8288 12.6903 92.6499 12.7216 92.4624 12.75C92.0987 12.8068 91.8004 12.9006 91.5675 13.0312C91.3402 13.1562 91.1697 13.3125 91.0561 13.5C90.9482 13.6818 90.8942 13.8864 90.8942 14.1136C90.8942 14.4773 91.022 14.7557 91.2777 14.9489C91.5334 15.142 91.8601 15.2386 92.2578 15.2386ZM103.651 22.9091C103.111 22.9091 102.597 22.8665 102.108 22.7812C101.619 22.7017 101.19 22.5909 100.821 22.4489L101.844 19.108C102.23 19.2443 102.582 19.3324 102.901 19.3722C103.224 19.4119 103.5 19.3892 103.727 19.304C103.96 19.2188 104.128 19.0568 104.23 18.8182L104.332 18.5795L99.7301 4.90909H104.639L106.753 13.9773H106.889L109.037 4.90909H113.98L109.207 19.0909C108.969 19.8125 108.622 20.4602 108.168 21.0341C107.719 21.6136 107.128 22.071 106.395 22.4062C105.662 22.7415 104.747 22.9091 103.651 22.9091Z" fill="#2563EB"/>
</svg>
